<svg width="128" height="128" viewBox="0 0 128 128" fill="none" xmlns="http://www.w3.org/2000/svg">
  <rect x="8" y="8" width="112" height="112" rx="28" fill="#1f91b8"/>
  <path d="M38 82V46H50V71.5C50 75.1 52.9 78 56.5 78C60.1 78 63 75.1 63 71.5V46H75V71.5C75 81.2 67.2 89 57.5 89C47.8 89 40 81.2 40 71.5V46H38V82Z" fill="#fdf6ec"/>
  <path d="M80 46H94C103.2 46 110 52.8 110 62C110 71.2 103.2 78 94 78H92V89H80V46ZM92 66H94C97.3 66 100 63.3 100 60C100 56.7 97.3 54 94 54H92V66Z" fill="#fdf6ec"/>
</svg>
